<mxfile host="app.diagrams.net" modified="2023-06-06T09:07:58.106Z" agent="Mozilla/5.0 (X11; Linux x86_64) AppleWebKit/537.36 (KHTML, like Gecko) Chrome/110.0.0.0 YaBrowser/23.3.3.764 Yowser/2.5 Safari/537.36" version="21.3.7" etag="23cMrtTw-d37hTrkIvpl" type="github">
  <diagram name="Страница 1" id="AbLkEYGohzZe09rI4aGx">
    <mxGraphModel>
      <root>
        <mxCell id="0" />
        <mxCell id="1" parent="0" />
      </root>
    </mxGraphModel>
  </diagram>
</mxfile>
